<?xml version="1.0" encoding="UTF-8"?>
<!DOCTYPE svg PUBLIC "-//W3C//DTD SVG 1.1//EN" "http://www.w3.org/Graphics/SVG/1.1/DTD/svg11.dtd">
<svg version="1.1" xmlns="http://www.w3.org/2000/svg" xmlns:xlink="http://www.w3.org/1999/xlink" x="0" y="0" width="500" height="500" viewBox="0, 0, 500, 500">
  <g id="Layer_1">
    <g>
      <path d="M497.827,30.724 C425.479,187.15 353.134,343.574 280.787,500 C330.398,341.87 346.934,206.487 330.398,93.864 C380.006,73.956 435.815,52.909 497.827,30.724" fill="#24477C"/>
      <path d="M245.543,495.538 C163.695,344.894 81.848,194.25 0,43.606 C95.255,173.962 190.6,261.392 286.038,305.892 C274.963,362.722 261.465,425.937 245.543,495.538" fill="#24477C"/>
      <path d="M22.117,24.382 C181.411,16.255 340.706,8.127 500,0 C350.601,30.723 235.521,81.842 154.764,153.353 C114.513,115.734 70.298,72.743 22.117,24.382" fill="#F1AF36"/>
    </g>
  </g>
</svg>
